<svg width="10" height="12" viewBox="0 0 10 12" fill="none" xmlns="http://www.w3.org/2000/svg">
<path d="M4.28571 1.5C4.28571 0.773438 5 0.960938 5 0C5.26786 0 5.71429 0.691406 5.71429 1.3125C5.71429 1.93359 5.39621 2.25 5 2.25C4.60379 2.25 4.28571 1.91602 4.28571 1.5ZM7.85714 2.25C8.25335 2.25 8.57143 1.93359 8.57143 1.3125C8.57143 0.691406 8.125 0 7.85714 0C7.85714 0.960938 7.14286 0.773438 7.14286 1.5C7.14286 1.91602 7.46094 2.25 7.85714 2.25ZM10 6.375V12H0V6.375C0 5.75391 0.479911 5.25 1.07143 5.25H1.60714V2.625H2.67857V5.25H4.46429V2.625H5.53571V5.25H7.32143V2.625H8.39286V5.25H8.92857C9.52009 5.25 10 5.75391 10 6.375ZM1.07143 6.51562V7.8476C1.25786 8.01166 1.41228 8.15625 1.66853 8.15625C2.235 8.15625 2.34107 7.40625 3.33705 7.40625C4.31862 7.40625 4.44763 8.15625 5 8.15625C5.57116 8.15625 5.671 7.40625 6.66853 7.40625C7.66123 7.40625 7.76962 8.15625 8.33705 8.15625C8.58835 8.15625 8.74185 8.01141 8.92857 7.84718V6.51581C8.92857 6.47852 8.91446 6.44275 8.88934 6.41638C8.86423 6.39 8.83016 6.37519 8.79464 6.37519L1.20536 6.375C1.16984 6.375 1.13577 6.38982 1.11066 6.41619C1.08554 6.44256 1.07143 6.47833 1.07143 6.51562V6.51562ZM8.92857 10.875V8.97961C8.7723 9.04791 8.5817 9.09375 8.33705 9.09375C7.34277 9.09375 7.23462 8.34375 6.66853 8.34375C6.10728 8.34375 5.99154 9.09375 5 9.09375C4.01844 9.09375 3.8894 8.34375 3.33705 8.34375C2.76592 8.34375 2.66603 9.09375 1.66853 9.09375C1.42112 9.09375 1.22884 9.04748 1.07143 8.97865V10.875H8.92857ZM2.14286 2.25C2.53906 2.25 2.85714 1.93359 2.85714 1.3125C2.85714 0.691406 2.41071 0 2.14286 0C2.14286 0.960938 1.42857 0.773438 1.42857 1.5C1.42857 1.91602 1.74665 2.25 2.14286 2.25Z" fill="white"/>
</svg>
