<svg width="9" height="12" viewBox="0 0 9 12" fill="none" xmlns="http://www.w3.org/2000/svg">
<path d="M3.35993 9.14272H5.6403C5.71455 8.45583 6.05936 7.88895 6.61905 7.27006C6.68261 7.20034 7.08705 6.77461 7.13486 6.71403C7.53215 6.2098 7.78116 5.60182 7.85324 4.96011C7.92531 4.3184 7.81751 3.66905 7.54225 3.08685C7.26699 2.50466 6.83546 2.01328 6.29736 1.66932C5.75926 1.32536 5.13647 1.1428 4.50072 1.14266C3.86497 1.14252 3.2421 1.32481 2.70386 1.66854C2.16562 2.01227 1.73388 2.50346 1.45837 3.08553C1.18287 3.66761 1.07479 4.31691 1.1466 4.95865C1.2184 5.6004 1.46716 6.20848 1.86424 6.71289C1.91261 6.77404 2.31818 7.20034 2.38061 7.26949C2.94086 7.88895 3.28568 8.45583 3.35993 9.14272ZM5.62511 10.2856H3.37511V10.8571H5.62511V10.2856ZM0.986739 7.42835C0.456972 6.75592 0.12496 5.94512 0.0289509 5.08937C-0.0670585 4.23361 0.0768399 3.36771 0.44407 2.5914C0.8113 1.8151 1.38692 1.15998 2.10463 0.701509C2.82233 0.243036 3.65292 -0.000137859 4.50072 5.86333e-08C5.34852 0.000137976 6.17903 0.243582 6.89659 0.702288C7.61415 1.16099 8.18957 1.8163 8.55655 2.59273C8.92354 3.36915 9.06716 4.2351 8.97089 5.09082C8.87461 5.94655 8.54234 6.75723 8.01236 7.4295C7.66361 7.87066 6.75011 8.57127 6.75011 9.42845V10.8571C6.75011 11.1602 6.63158 11.4509 6.42061 11.6652C6.20963 11.8796 5.92348 12 5.62511 12H3.37511C3.07674 12 2.7906 11.8796 2.57962 11.6652C2.36864 11.4509 2.25011 11.1602 2.25011 10.8571V9.42845C2.25011 8.57127 1.33605 7.87066 0.986739 7.42835ZM5.06261 4.57336H6.46886L3.93761 8.0021V5.71627H2.53136L5.06261 2.28525V4.57393V4.57336Z" fill="white"/>
</svg>
