<svg width="10" height="13" viewBox="0 0 10 13" fill="none" xmlns="http://www.w3.org/2000/svg">
<path d="M3.81762 9.50023H6.18245C6.25945 8.79906 6.61704 8.2204 7.19745 7.58865C7.26337 7.51748 7.68279 7.0829 7.73237 7.02106C8.14437 6.50635 8.40261 5.88573 8.47736 5.23068C8.5521 4.57563 8.4403 3.91279 8.15485 3.31849C7.86939 2.7242 7.42188 2.22261 6.86385 1.8715C6.30582 1.52039 5.65997 1.33403 5.00067 1.33389C4.34137 1.33375 3.69544 1.51983 3.13726 1.8707C2.57908 2.22158 2.13135 2.72297 1.84564 3.31715C1.55993 3.91132 1.44785 4.57412 1.52232 5.2292C1.59678 5.88428 1.85476 6.505 2.26654 7.0199C2.3167 7.08231 2.73729 7.51748 2.80204 7.58806C3.38304 8.2204 3.74062 8.79906 3.81762 9.50023V9.50023ZM6.1667 10.6669H3.83337V11.2502H6.1667V10.6669ZM1.35654 7.75023C0.807149 7.06382 0.462841 6.23617 0.363275 5.36263C0.26371 4.48908 0.412938 3.60518 0.793769 2.81275C1.1746 2.02031 1.77154 1.35157 2.51583 0.88357C3.26012 0.415568 4.12147 0.16734 5.00067 0.167481C5.87987 0.167621 6.74114 0.416125 7.48528 0.884365C8.22942 1.35261 8.82614 2.02153 9.20672 2.81409C9.5873 3.60665 9.73624 4.4906 9.6364 5.36411C9.53655 6.23762 9.19198 7.06516 8.64237 7.7514C8.2807 8.20173 7.33337 8.91689 7.33337 9.79189V11.2502C7.33337 11.5596 7.21045 11.8564 6.99166 12.0752C6.77287 12.294 6.47612 12.4169 6.1667 12.4169H3.83337C3.52395 12.4169 3.22721 12.294 3.00841 12.0752C2.78962 11.8564 2.6667 11.5596 2.6667 11.2502V9.79189C2.6667 8.91689 1.71879 8.20173 1.35654 7.75023ZM5.58337 4.8359H7.0417L4.4167 8.3359V6.00256H2.95837L5.58337 2.50023V4.83648V4.8359Z" fill="#172849"/>
</svg>
