<svg width="10" height="12" viewBox="0 0 10 12" fill="none" xmlns="http://www.w3.org/2000/svg">
<path d="M3.23529 0V2.15385H6.76471V0H7.94118V2.15385H9.41176C9.56777 2.15385 9.71739 2.21869 9.82771 2.3341C9.93803 2.4495 10 2.60603 10 2.76924V11.3846C10 11.5478 9.93803 11.7044 9.82771 11.8198C9.71739 11.9352 9.56777 12 9.41176 12H0.588235C0.432226 12 0.282606 11.9352 0.17229 11.8198C0.0619745 11.7044 0 11.5478 0 11.3846V2.76924C0 2.60603 0.0619745 2.4495 0.17229 2.3341C0.282606 2.21869 0.432226 2.15385 0.588235 2.15385H2.05882V0H3.23529ZM8.82353 3.53851H1.17647V10.7692H8.82353V3.53851Z" fill="white"/>
<path d="M5.00057 4.61523L5.84076 6.17468L7.51808 6.52873L6.36003 7.84657L6.55648 9.62484L5.00057 8.87986L3.44467 9.62484L3.64112 7.84657L2.48307 6.52873L4.16039 6.17468L5.00057 4.61523Z" fill="white"/>
</svg>
