<svg width="16" height="16" viewBox="0 0 16 16" fill="none" xmlns="http://www.w3.org/2000/svg">
<path d="M5.99992 1V3.33333H9.99992V1H11.3333V3.33333H12.9999C13.1767 3.33333 13.3463 3.40357 13.4713 3.5286C13.5963 3.65362 13.6666 3.82319 13.6666 4V13.3333C13.6666 13.5101 13.5963 13.6797 13.4713 13.8047C13.3463 13.9297 13.1767 14 12.9999 14H2.99992C2.82311 14 2.65354 13.9297 2.52851 13.8047C2.40349 13.6797 2.33325 13.5101 2.33325 13.3333V4C2.33325 3.82319 2.40349 3.65362 2.52851 3.5286C2.65354 3.40357 2.82311 3.33333 2.99992 3.33333H4.66659V1H5.99992ZM12.3333 4.83337H3.66659V12.6666H12.3333V4.83337Z" fill="#172849"/>
<path d="M8 5L8.95221 6.68939L10.8532 7.07295L9.54071 8.50061L9.76336 10.4271L8 9.62L6.23664 10.4271L6.45929 8.50061L5.14683 7.07295L7.04779 6.68939L8 5Z" fill="#172849"/>
</svg>
