<svg width="14" height="14" viewBox="0 0 14 14" fill="none" xmlns="http://www.w3.org/2000/svg">
<path d="M11.6666 13.3333H2.33325C1.80282 13.3333 1.29411 13.1226 0.919038 12.7475C0.543966 12.3725 0.333252 11.8638 0.333252 11.3333V0.666667C0.333252 0.489856 0.40349 0.320286 0.528514 0.195262C0.653538 0.0702379 0.823108 0 0.999919 0H10.3333C10.5101 0 10.6796 0.0702379 10.8047 0.195262C10.9297 0.320286 10.9999 0.489856 10.9999 0.666667V8.66667H13.6666V11.3333C13.6666 11.8638 13.4559 12.3725 13.0808 12.7475C12.7057 13.1226 12.197 13.3333 11.6666 13.3333ZM10.9999 10V11.3333C10.9999 11.5101 11.0702 11.6797 11.1952 11.8047C11.3202 11.9298 11.4898 12 11.6666 12C11.8434 12 12.013 11.9298 12.138 11.8047C12.263 11.6797 12.3333 11.5101 12.3333 11.3333V10H10.9999ZM9.66658 12V1.33333H1.66659V11.3333C1.66659 11.5101 1.73682 11.6797 1.86185 11.8047C1.98687 11.9298 2.15644 12 2.33325 12H9.66658ZM2.99992 3.33333H8.33325V4.66667H2.99992V3.33333ZM2.99992 6H8.33325V7.33333H2.99992V6ZM2.99992 8.66667H6.33325V10H2.99992V8.66667Z" fill="#172849"/>
</svg>
