<svg width="12" height="12" viewBox="0 0 12 12" fill="none" xmlns="http://www.w3.org/2000/svg">
<path d="M10.2 12H1.8C1.32261 12 0.864773 11.8104 0.527208 11.4728C0.189642 11.1352 0 10.6774 0 10.2V0.6C0 0.44087 0.0632141 0.288258 0.175736 0.175736C0.288258 0.0632141 0.44087 0 0.6 0H9C9.15913 0 9.31174 0.0632141 9.42426 0.175736C9.53679 0.288258 9.6 0.44087 9.6 0.6V7.8H12V10.2C12 10.6774 11.8104 11.1352 11.4728 11.4728C11.1352 11.8104 10.6774 12 10.2 12ZM9.6 9V10.2C9.6 10.3591 9.66321 10.5117 9.77573 10.6243C9.88826 10.7368 10.0409 10.8 10.2 10.8C10.3591 10.8 10.5117 10.7368 10.6243 10.6243C10.7368 10.5117 10.8 10.3591 10.8 10.2V9H9.6ZM8.4 10.8V1.2H1.2V10.2C1.2 10.3591 1.26321 10.5117 1.37574 10.6243C1.48826 10.7368 1.64087 10.8 1.8 10.8H8.4ZM2.4 3H7.2V4.2H2.4V3ZM2.4 5.4H7.2V6.6H2.4V5.4ZM2.4 7.8H5.4V9H2.4V7.8Z" fill="white"/>
</svg>
