<svg width="16" height="17" viewBox="0 0 16 17" fill="none" xmlns="http://www.w3.org/2000/svg">
<path d="M5 4.5V6.49925H7.25V4.5H8.75V6.49925H11V4.5H12.5V6.49925L13.25 6.5C13.8239 6.49997 14.3761 6.71924 14.7937 7.11296C15.2113 7.50668 15.4626 8.04508 15.4963 8.618L15.5 8.75V9.5C15.5 10.2605 15.2172 10.955 14.7507 11.4838L14.75 15.75C14.75 15.9489 14.671 16.1397 14.5303 16.2803C14.3897 16.421 14.1989 16.5 14 16.5H2C1.80109 16.5 1.61032 16.421 1.46967 16.2803C1.32902 16.1397 1.25 15.9489 1.25 15.75V11.48C0.847001 11.0208 0.592804 10.4502 0.521 9.8435L0.5045 9.65375L0.5 9.5V8.75C0.499968 8.17609 0.719244 7.62386 1.11296 7.2063C1.50668 6.78874 2.04508 6.53742 2.618 6.50375L2.75 6.5L3.5 6.49925V4.5H5ZM5.7515 11.4808L5.711 11.528C5.21937 12.0648 4.54912 12.4042 3.8255 12.4827L3.653 12.4963L3.5 12.5C3.24125 12.5 2.99 12.467 2.75 12.4055V15H13.25V12.4055C12.759 12.5317 12.2441 12.5317 11.7531 12.4054C11.2622 12.2791 10.8111 12.0307 10.442 11.6832L10.3295 11.5707L10.25 11.483L10.1698 11.5715C9.68341 12.0821 9.03239 12.4046 8.3315 12.482L8.15 12.497L8 12.5C7.2151 12.5011 6.46137 12.1929 5.90225 11.642L5.78975 11.5243L5.7515 11.4808ZM13.25 8H2.75C2.5663 8.00002 2.389 8.06747 2.25172 8.18954C2.11444 8.31161 2.02674 8.47981 2.00525 8.66225L2 8.75V9.47825L2.00225 9.5885C2.02482 9.9704 2.19246 10.3292 2.47087 10.5916C2.74929 10.854 3.11743 11.0001 3.5 11C3.85922 11.0006 4.20672 10.8723 4.47926 10.6383C4.7518 10.4043 4.93127 10.0802 4.985 9.725L4.99625 9.61025L5 9.47825C5.027 8.54225 6.37025 8.5085 6.49175 9.37775L6.49925 9.47825L6.50225 9.5885C6.52323 9.96946 6.68859 10.3281 6.96467 10.5914C7.24075 10.8548 7.60681 11.003 7.98833 11.006C8.36986 11.0089 8.73817 10.8664 9.01831 10.6074C9.29845 10.3484 9.46936 9.99234 9.49625 9.61175L9.50525 9.40025C9.59825 8.53325 10.9017 8.53325 10.9948 9.40025L11.0037 9.61175C11.0306 9.99028 11.1999 10.3446 11.4775 10.6032C11.7552 10.8619 12.1205 11.0058 12.5 11.0058C12.8795 11.0058 13.2448 10.8619 13.5225 10.6032C13.8001 10.3446 13.9694 9.99028 13.9963 9.61175L14 9.5V8.75C14 8.5663 13.9325 8.389 13.8105 8.25172C13.6884 8.11444 13.5202 8.02674 13.3378 8.00525L13.25 8ZM4.25 0.75C5.24 1.40325 5.49725 2.316 5.33675 2.916C5.25957 3.20422 5.07106 3.44998 4.81268 3.59922C4.5543 3.74845 4.24722 3.78893 3.959 3.71175C3.67078 3.63457 3.42502 3.44606 3.27578 3.18768C3.12655 2.9293 3.08607 2.62222 3.16325 2.334C3.3875 1.5015 4.25 1.875 4.25 0.75ZM8 0.75C8.99 1.40325 9.24725 2.316 9.08675 2.916C9.00957 3.20422 8.82106 3.44998 8.56268 3.59922C8.3043 3.74845 7.99722 3.78893 7.709 3.71175C7.42078 3.63457 7.17502 3.44606 7.02578 3.18768C6.87655 2.9293 6.83607 2.62222 6.91325 2.334C7.1375 1.5015 8 1.875 8 0.75ZM11.75 0.75C12.74 1.40325 12.9972 2.316 12.8368 2.916C12.7596 3.20422 12.5711 3.44998 12.3127 3.59922C12.0543 3.74845 11.7472 3.78893 11.459 3.71175C11.1708 3.63457 10.925 3.44606 10.7758 3.18768C10.6266 2.9293 10.5861 2.62222 10.6632 2.334C10.8875 1.5015 11.75 1.875 11.75 0.75Z" fill="#172849"/>
</svg>
