<svg width="18" height="18" viewBox="0 0 18 18" fill="none" xmlns="http://www.w3.org/2000/svg">
<path d="M6.75 0.75V3.25H11.25V0.75H12.75V3.25H14.75C14.9489 3.25 15.1397 3.32902 15.2803 3.46967C15.421 3.61032 15.5 3.80109 15.5 4V15C15.5 15.1989 15.421 15.3897 15.2803 15.5303C15.1397 15.671 14.9489 15.75 14.75 15.75H3.25C3.05109 15.75 2.86032 15.671 2.71967 15.5303C2.57902 15.3897 2.5 15.1989 2.5 15V4C2.5 3.80109 2.57902 3.61032 2.71967 3.46967C2.86032 3.32902 3.05109 3.25 3.25 3.25H5.25V0.75H6.75ZM14 5H4V14.25H14V5Z" fill="#172849"/>
<path d="M9 7L10.0051 8.61658L11.8532 9.07295L10.6263 10.5284L10.7634 12.4271L9 11.71L7.23664 12.4271L7.37369 10.5284L6.14683 9.07295L7.99489 8.61658L9 7Z" fill="#172849"/>
</svg>
