<svg width="18" height="15" viewBox="0 0 18 15" fill="none" xmlns="http://www.w3.org/2000/svg">
<path d="M4.5 13.2499H13.5V5.86769L9 1.77719L4.5 5.86769V13.2499ZM14.25 14.7499H3.75C3.55109 14.7499 3.36032 14.6709 3.21967 14.5303C3.07902 14.3896 3 14.1989 3 13.9999V7.24994H0.75L8.49525 0.20894C8.63333 0.0832983 8.81331 0.0136719 9 0.0136719C9.18669 0.0136719 9.36667 0.0832983 9.50475 0.20894L17.25 7.24994H15V13.9999C15 14.1989 14.921 14.3896 14.7803 14.5303C14.6397 14.6709 14.4489 14.7499 14.25 14.7499ZM5.625 8.74994H7.125C7.125 9.24722 7.32254 9.72413 7.67417 10.0758C8.02581 10.4274 8.50272 10.6249 9 10.6249C9.49728 10.6249 9.97419 10.4274 10.3258 10.0758C10.6775 9.72413 10.875 9.24722 10.875 8.74994H12.375C12.375 9.64505 12.0194 10.5035 11.3865 11.1364C10.7535 11.7694 9.89511 12.1249 9 12.1249C8.10489 12.1249 7.24645 11.7694 6.61351 11.1364C5.98058 10.5035 5.625 9.64505 5.625 8.74994Z" fill="#EF613B"/>
</svg>
