<svg width="12" height="16" viewBox="0 0 12 16" fill="none" xmlns="http://www.w3.org/2000/svg">
<path d="M6 0C2.49062 3.16656 0 6.90375 0 9.39219C0 13.2828 2.46719 16 6 16C9.53281 16 12 13.2828 12 9.39219C12 6.89375 9.49312 3.15188 6 0ZM6 14.5C3.30844 14.5 1.5 12.4472 1.5 9.39219C1.5 7.94625 2.91594 5.12281 5.99875 2.065C8.69406 4.74906 10.5 7.65062 10.5 9.39219C10.5 12.4472 8.69156 14.5 6 14.5ZM7.40844 7.49C6.78688 6.95875 6.2 6.45688 6.2 5.67063C6.2 5.56438 6.11188 5.52406 6.07375 5.51188C6.00125 5.48875 5.89344 5.49406 5.82562 5.58625C4.11 7.91937 6.75 7.75 6.75 9.4375C6.75 10.1625 6.1625 10.75 5.4375 10.75C4.71281 10.75 4.125 10.1625 4.125 9.4375V8.5C4.12497 8.46294 4.11395 8.42672 4.09335 8.39592C4.07274 8.36511 4.04347 8.34111 4.00923 8.32693C3.97499 8.31275 3.93732 8.30904 3.90097 8.31626C3.86462 8.32348 3.83122 8.34131 3.805 8.3675C3.60563 8.56094 3 9.2025 3 10.2369C3 11.7603 4.34562 13 6 13C7.65438 13 9 11.7603 9 10.2369C9 8.85031 8.19094 8.15875 7.40844 7.49Z" fill="#172849"/>
</svg>
