<svg width="24" height="28" viewBox="0 0 24 28" fill="none" xmlns="http://www.w3.org/2000/svg">
<path d="M8.31951 0C3.72477 0 0 3.72479 0 8.31955V26.0157C0 27.0879 0.869226 27.9572 1.94147 27.9572C1.99 27.9572 2.03812 27.9554 2.08575 27.9519C2.13339 27.9554 2.1815 27.9572 2.23003 27.9572C3.30228 27.9572 4.1715 27.0879 4.1715 26.0157V22.4502C4.1715 20.8806 5.44396 19.6081 7.0136 19.6081H13.5016C18.6468 19.6081 22.8177 15.4371 22.8177 10.292V10.1923C22.8177 9.12009 21.9485 8.25086 20.8763 8.25086H9.4157C8.34346 8.25086 7.47423 9.12009 7.47423 10.1923C7.47423 11.2646 8.34346 12.1338 9.4157 12.1338H18.6147C17.8602 14.228 15.8558 15.7252 13.5016 15.7252H7.0136C5.88323 15.7252 4.81799 16.0041 3.88294 16.4968V8.31955C3.88294 5.86926 5.86927 3.88294 8.31951 3.88294H21.4743C22.5465 3.88294 23.4158 3.01371 23.4158 1.94147C23.4158 0.869226 22.5465 0 21.4743 0H8.31951Z" fill="#EF613B"/>
</svg>
