<svg width="20" height="20" viewBox="0 0 20 20" fill="none" xmlns="http://www.w3.org/2000/svg">
<path d="M12.2743 7.72579C14.27 9.72152 14.3984 12.8932 12.6551 15.0367C12.4113 15.3387 12.5464 15.1877 9.33717 18.3969C7.20061 20.5334 3.74085 20.5353 1.6032 18.3969C-0.533949 16.2605 -0.534848 12.801 1.6032 10.6629C2.88339 9.3827 3.628 8.63559 4.08011 8.1841C4.37163 7.89301 4.87429 8.09215 4.88034 8.5041C4.88761 9.00198 4.94978 9.49752 5.06573 9.98176C5.10346 10.1391 5.05511 10.3048 4.94065 10.4192L3.14968 12.2098C1.87019 13.49 1.86503 15.5649 3.14968 16.8504C4.42995 18.1299 6.50483 18.135 7.7903 16.8504L10.7274 13.9129C12.0054 12.6346 12.0078 10.553 10.7274 9.27266C10.468 9.01282 10.1668 8.79851 9.83623 8.63871C9.65565 8.55149 9.55568 8.35551 9.57994 8.15645C9.63291 7.722 9.82588 7.30157 10.1587 6.96875L10.3296 6.79786C10.4712 6.65622 10.688 6.6184 10.867 6.70825C11.3748 6.96309 11.8509 7.30243 12.2743 7.72579ZM18.3968 1.60314C16.2591 -0.535336 12.7994 -0.533422 10.6628 1.60314C7.45358 4.81235 7.58866 4.66134 7.34483 4.96329C5.60159 7.10676 5.72995 10.2785 7.72569 12.2742C8.14905 12.6976 8.62514 13.0369 9.13291 13.2918C9.3119 13.3816 9.52877 13.3437 9.67041 13.2021L9.84131 13.0312C10.1741 12.6985 10.3671 12.278 10.42 11.8436C10.4443 11.6445 10.3443 11.4485 10.1637 11.3613C9.83319 11.2015 9.53192 10.9872 9.27256 10.7273C7.99221 9.44699 7.99452 7.36543 9.27256 6.08712L12.2097 3.14962C13.4951 1.86497 15.57 1.87013 16.8503 3.14962C18.1349 4.43509 18.1298 6.50997 16.8503 7.79024L15.0593 9.58086C14.9449 9.69527 14.8965 9.8609 14.9343 10.0183C15.0502 10.5025 15.1124 10.9981 15.1197 11.4959C15.1257 11.9079 15.6284 12.107 15.9199 11.8159C16.372 11.3645 17.1166 10.6173 18.3968 9.33715C20.5348 7.19907 20.5339 3.7395 18.3968 1.60314Z" fill="#333333"/>
</svg>
