<svg width="20" height="17" viewBox="0 0 20 17" fill="none" xmlns="http://www.w3.org/2000/svg">
<path d="M17.3668 1.84157C16.9412 1.41574 16.4359 1.07794 15.8796 0.847474C15.3234 0.617005 14.7273 0.498383 14.1252 0.498383C13.5231 0.498383 12.9269 0.617005 12.3707 0.847474C11.8145 1.07794 11.3091 1.41574 10.8835 1.84157L10.0002 2.7249L9.11685 1.84157C8.2571 0.981827 7.09104 0.498828 5.87518 0.498828C4.65932 0.498828 3.49326 0.981827 2.63351 1.84157C1.77377 2.70131 1.29077 3.86738 1.29077 5.08324C1.29077 6.2991 1.77377 7.46516 2.63351 8.3249L3.51685 9.20824L10.0002 15.6916L16.4835 9.20824L17.3668 8.3249C17.7927 7.89927 18.1305 7.39392 18.3609 6.8377C18.5914 6.28148 18.71 5.68531 18.71 5.08324C18.71 4.48116 18.5914 3.88499 18.3609 3.32877C18.1305 2.77256 17.7927 2.2672 17.3668 1.84157V1.84157Z" stroke="white" stroke-width="0.833333" stroke-linecap="round" stroke-linejoin="round"/>
</svg>
