<svg width="19" height="18" viewBox="0 0 19 18" fill="none" xmlns="http://www.w3.org/2000/svg">
<path d="M13.5 3.5L12.8292 3.83541L13.0365 4.25H13.5V3.5ZM5.5 3.5V4.25H5.96353L6.17082 3.83541L5.5 3.5ZM12.7764 2.05279L13.4472 1.71738L12.7764 2.05279ZM0.75 5.5V14.5H2.25V5.5H0.75ZM3.5 17.25H15.5V15.75H3.5V17.25ZM18.25 14.5V5.5H16.75V14.5H18.25ZM15.5 2.75H13.5V4.25H15.5V2.75ZM14.1708 3.16459L13.4472 1.71738L12.1056 2.3882L12.8292 3.83541L14.1708 3.16459ZM11.882 0.75H7.11803V2.25H11.882V0.75ZM5.55279 1.71738L4.82918 3.16459L6.17082 3.83541L6.89443 2.3882L5.55279 1.71738ZM5.5 2.75H3.5V4.25H5.5V2.75ZM12.75 9.5C12.75 11.2949 11.2949 12.75 9.5 12.75V14.25C12.1234 14.25 14.25 12.1234 14.25 9.5H12.75ZM9.5 12.75C7.70507 12.75 6.25 11.2949 6.25 9.5H4.75C4.75 12.1234 6.87665 14.25 9.5 14.25V12.75ZM6.25 9.5C6.25 7.70507 7.70507 6.25 9.5 6.25V4.75C6.87665 4.75 4.75 6.87665 4.75 9.5H6.25ZM9.5 6.25C11.2949 6.25 12.75 7.70507 12.75 9.5H14.25C14.25 6.87665 12.1234 4.75 9.5 4.75V6.25ZM7.11803 0.75C6.45518 0.75 5.84922 1.1245 5.55279 1.71738L6.89443 2.3882C6.93678 2.3035 7.02334 2.25 7.11803 2.25V0.75ZM18.25 5.5C18.25 3.98122 17.0188 2.75 15.5 2.75V4.25C16.1904 4.25 16.75 4.80964 16.75 5.5H18.25ZM15.5 17.25C17.0188 17.25 18.25 16.0188 18.25 14.5H16.75C16.75 15.1904 16.1904 15.75 15.5 15.75V17.25ZM0.75 14.5C0.75 16.0188 1.98122 17.25 3.5 17.25V15.75C2.80964 15.75 2.25 15.1904 2.25 14.5H0.75ZM13.4472 1.71738C13.1508 1.1245 12.5448 0.75 11.882 0.75V2.25C11.9767 2.25 12.0632 2.3035 12.1056 2.3882L13.4472 1.71738ZM2.25 5.5C2.25 4.80964 2.80964 4.25 3.5 4.25V2.75C1.98122 2.75 0.75 3.98122 0.75 5.5H2.25Z" fill="#EF613B"/>
</svg>
