<svg width="20" height="19" viewBox="0 0 20 19" fill="none" xmlns="http://www.w3.org/2000/svg">
<path d="M4.7977 8.29658C4.22514 5.84571 5.74781 3.39473 8.19868 2.82217L16.0001 0.999647L16.1268 1.54221C16.6294 3.69343 15.2929 5.84474 13.1416 6.3473L4.7977 8.29658V8.29658Z" stroke="white" stroke-width="2" stroke-linejoin="round"/>
<path d="M4.39462 13.0707C3.82206 10.6198 5.34473 8.16884 7.7956 7.59628L12.7172 6.44652V6.44652C13.2898 8.89739 11.7671 11.3484 9.31622 11.9209L4.39462 13.0707V13.0707Z" stroke="white" stroke-width="2" stroke-linejoin="round"/>
<path d="M3.99094 17.8448C3.41838 15.3939 4.94105 12.943 7.39192 12.3704L8.71379 12.0616V12.0616C9.28635 14.5124 7.76368 16.9634 5.31281 17.536L3.99094 17.8448V17.8448Z" stroke="white" stroke-width="2" stroke-linejoin="round"/>
</svg>
