<svg width="77" height="20" viewBox="0 0 77 20" fill="none" xmlns="http://www.w3.org/2000/svg">
<path d="M9.43527 12.7614C9.43527 11.9955 8.81439 11.3746 8.0485 11.3746C7.28261 11.3746 6.66174 11.9955 6.66174 12.7614V14.9117C6.66174 16.1901 5.62538 17.2264 4.34695 17.2264H2.77353V15.2919C2.77353 14.526 2.15265 13.9051 1.38676 13.9051C0.620876 13.9051 0 14.526 0 15.2919V18.6132C0 19.3791 0.620876 20 1.38676 20H4.34695C7.15715 20 9.43527 17.7219 9.43527 14.9117V12.7614Z" fill="url(#paint0_linear_974:6215)"/>
<path d="M5.94251 0C2.66055 0 0 2.66056 0 5.94253V18.5826C0 19.3485 0.620876 19.9694 1.38676 19.9694C1.42143 19.9694 1.4558 19.9681 1.48982 19.9656C1.52385 19.9681 1.55822 19.9694 1.59288 19.9694C2.35877 19.9694 2.97965 19.3485 2.97965 18.5826V16.0359C2.97965 14.9147 3.88854 14.0058 5.00971 14.0058H9.64403C13.3191 14.0058 16.2984 11.0265 16.2984 7.35143V7.28024C16.2984 6.51435 15.6775 5.89347 14.9116 5.89347H6.7255C5.95961 5.89347 5.33874 6.51435 5.33874 7.28024C5.33874 8.04612 5.95961 8.667 6.7255 8.667H13.2962C12.7573 10.1628 11.3256 11.2323 9.64403 11.2323H5.00971C4.20231 11.2323 3.44142 11.4315 2.77353 11.7834V5.94253C2.77353 4.19233 4.19234 2.77353 5.94251 2.77353H15.3388C16.1047 2.77353 16.7255 2.15265 16.7255 1.38676C16.7255 0.620876 16.1047 0 15.3388 0H5.94251Z" fill="#EF613B"/>
<path d="M41.7332 6.51197C41.7332 5.80432 41.1596 5.23066 40.4519 5.23066C39.7443 5.23066 39.1706 5.80432 39.1706 6.51197V18.4708C39.1706 19.1785 39.7443 19.7521 40.4519 19.7521C41.1596 19.7521 41.7332 19.1785 41.7332 18.4708V15.2999L43.6423 13.3909L47.5862 19.0602C47.9903 19.6411 48.7888 19.7844 49.3697 19.3803C49.9506 18.9762 50.0939 18.1777 49.6898 17.5968L45.4833 11.5499L49.4017 7.63156C49.9021 7.13119 49.9021 6.31991 49.4017 5.81952C48.9014 5.31913 48.0901 5.31912 47.5897 5.8195L41.7332 11.6758V6.51197Z" fill="#EF613B"/>
<path d="M53.7352 5.25072C53.0275 5.25072 52.4539 5.82438 52.4539 6.53202V18.0422C52.4539 18.7498 53.0275 19.3235 53.7352 19.3235H61.3624C62.07 19.3235 62.6437 18.7498 62.6437 18.0422C62.6437 17.3345 62.07 16.7609 61.3624 16.7609H55.0165V13.5684H59.9756C60.6833 13.5684 61.2569 12.9947 61.2569 12.2871C61.2569 11.5794 60.6833 11.0058 59.9756 11.0058H55.0165V7.81333H61.3624C62.07 7.81333 62.6437 7.23967 62.6437 6.53202C62.6437 5.82438 62.07 5.25072 61.3624 5.25072H53.7352Z" fill="#EF613B"/>
<path d="M20.8764 6.6707C20.8764 5.96305 20.3027 5.38939 19.5951 5.38939C18.8874 5.38939 18.3138 5.96305 18.3138 6.6707V15.837C18.3138 17.8027 19.9073 19.3962 21.873 19.3962H25.0662C25.7739 19.3962 26.3475 18.8226 26.3475 18.1149C26.3475 17.4073 25.7739 16.8336 25.0662 16.8336H21.873C21.3226 16.8336 20.8764 16.3874 20.8764 15.837V6.6707Z" fill="#EF613B"/>
<path fill-rule="evenodd" clip-rule="evenodd" d="M66.3547 5.52807C65.6471 5.52807 65.0734 6.10173 65.0734 6.80937V17.9035C65.0734 18.6111 65.6471 19.1848 66.3547 19.1848H71.4858C74.491 19.1848 76.9274 16.7485 76.9274 13.7432V10.9697C76.9274 7.96433 74.491 5.52807 71.4858 5.52807H66.3547ZM67.636 16.6222V8.09068H71.4858C73.0757 8.09068 74.3647 9.37966 74.3647 10.9697V13.7432C74.3647 15.3332 73.0757 16.6222 71.4858 16.6222H67.636Z" fill="#EF613B"/>
<path d="M28.4966 6.44644C28.1429 5.83348 27.3594 5.62325 26.7464 5.97687C26.1335 6.3305 25.9232 7.11406 26.2769 7.72702L30.2656 14.641V18.1808C30.2656 18.8885 30.8393 19.4621 31.5469 19.4621C32.2546 19.4621 32.8283 18.8885 32.8283 18.1808V14.6508L36.9465 7.74284C37.3088 7.13501 37.1099 6.34851 36.502 5.98615C35.8942 5.62379 35.1077 5.82279 34.7453 6.43062L31.5651 11.7653L28.4966 6.44644Z" fill="#EF613B"/>
<defs>
<linearGradient id="paint0_linear_974:6215" x1="4.61302" y1="22.4287" x2="4.61302" y2="12.4129" gradientUnits="userSpaceOnUse">
<stop stop-color="#EF613B"/>
<stop offset="1" stop-color="#EF613B" stop-opacity="0"/>
</linearGradient>
</defs>
</svg>
