<svg width="20" height="17" viewBox="0 0 20 17" fill="none" xmlns="http://www.w3.org/2000/svg">
<path d="M17.3671 1.84124C16.9415 1.41541 16.4361 1.07761 15.8799 0.847138C15.3237 0.61667 14.7275 0.498047 14.1254 0.498047C13.5234 0.498047 12.9272 0.61667 12.371 0.847138C11.8147 1.07761 11.3094 1.41541 10.8838 1.84124L10.0004 2.72457L9.11709 1.84124C8.25735 0.981492 7.09129 0.498493 5.87542 0.498493C4.65956 0.498493 3.4935 0.981492 2.63376 1.84124C1.77401 2.70098 1.29102 3.86704 1.29102 5.0829C1.29102 6.29876 1.77401 7.46483 2.63376 8.32457L3.51709 9.2079L10.0004 15.6912L16.4838 9.2079L17.3671 8.32457C17.7929 7.89894 18.1307 7.39358 18.3612 6.83736C18.5917 6.28115 18.7103 5.68497 18.7103 5.0829C18.7103 4.48083 18.5917 3.88465 18.3612 3.32844C18.1307 2.77222 17.7929 2.26686 17.3671 1.84124V1.84124Z" stroke="#172849" stroke-width="0.833333" stroke-linecap="round" stroke-linejoin="round"/>
</svg>
