<svg width="18" height="16" viewBox="0 0 18 16" fill="none" xmlns="http://www.w3.org/2000/svg">
<path d="M16.549 2.05518C16.1246 1.57948 15.607 1.19608 15.0283 0.928767C14.4496 0.661452 13.8221 0.515926 13.1848 0.501221C12.5493 0.487865 11.9177 0.602391 11.3273 0.837991C10.737 1.07359 10.2001 1.42546 9.74847 1.87268L9.00018 2.62097L8.41425 2.03564C6.59174 0.211304 3.62543 0.0581056 1.80658 1.69995C1.3325 2.1252 0.950093 2.64264 0.682712 3.22065C0.41533 3.79866 0.268589 4.42511 0.251453 5.06174C0.234316 5.69837 0.347143 6.33181 0.583042 6.92336C0.818942 7.51492 1.17296 8.05218 1.62347 8.50232L8.11639 14.9952C8.35094 15.2294 8.66879 15.3608 9.00018 15.3608C9.33158 15.3608 9.64943 15.2294 9.88397 14.9952L16.2145 8.66467C18.0383 6.84033 18.1884 3.87524 16.549 2.05518Z" fill="#EF4444"/>
</svg>
