<svg width="14" height="14" viewBox="0 0 14 14" fill="none" xmlns="http://www.w3.org/2000/svg">
<path d="M10.7399 1.28611C12.6988 2.50833 14 4.66111 14 7.1111C14 10.9111 10.8726 13.9916 7.01412 14C3.16129 14.0083 0.00564974 10.9167 4.58293e-06 7.12221C-0.002818 4.66666 1.29839 2.50833 3.26008 1.28611C3.42379 1.18333 3.64113 1.23611 3.7371 1.40278L4.07016 1.98333C4.15766 2.13611 4.10968 2.33055 3.96008 2.425C2.39355 3.41388 1.35484 5.14166 1.35484 7.1111C1.35484 10.1805 3.88105 12.6667 7 12.6667C10.119 12.6667 12.6452 10.1805 12.6452 7.1111C12.6452 5.14166 11.6065 3.41388 10.0399 2.42777C9.89032 2.33333 9.84234 2.13889 9.92984 1.98611L10.2629 1.40555C10.356 1.23611 10.5762 1.18611 10.7399 1.28611ZM7.67742 7.66666V0.333333C7.67742 0.15 7.525 0 7.33871 0H6.66129C6.475 0 6.32258 0.15 6.32258 0.333333V7.66666C6.32258 7.84999 6.475 7.99999 6.66129 7.99999H7.33871C7.525 7.99999 7.67742 7.84999 7.67742 7.66666Z" fill="black"/>
</svg>
