<svg width="20" height="20" viewBox="0 0 20 20" fill="none" xmlns="http://www.w3.org/2000/svg">
<path d="M18.1236 0.168993L0.624417 10.2623C-0.273978 10.7818 -0.184138 12.1059 0.772847 12.5004L6.24915 14.766V18.7501C6.24915 19.9298 7.72564 20.4415 8.46389 19.5431L10.8349 16.6604L15.7721 18.6994C16.5182 19.0079 17.3619 18.5353 17.483 17.7346L19.9829 1.44237C20.143 0.399451 19.022 -0.350514 18.1236 0.168993ZM7.49909 18.7501V15.2816L9.6279 16.1604L7.49909 18.7501ZM16.2487 17.5432L8.19437 14.2152L15.987 5.0047C16.1745 4.78596 15.8737 4.4891 15.655 4.67659L5.68277 13.1762L1.24939 11.3481L18.7486 1.25097L16.2487 17.5432Z" fill="#EF613B"/>
</svg>
