<svg width="35" height="37" viewBox="0 0 35 37" fill="none" xmlns="http://www.w3.org/2000/svg">
<path fill-rule="evenodd" clip-rule="evenodd" d="M5 0C2.23858 0 0 2.23858 0 5V32C0 34.7614 2.23858 37 5 37H10H25H30C32.7614 37 35 34.7614 35 32V5C35 2.23858 32.7614 0 30 0H5ZM28 25V28H29C30.6569 28 32 26.6569 32 25V6C32 4.34315 30.6569 3 29 3H6C4.34315 3 3 4.34315 3 6V25C3 26.6569 4.34315 28 6 28H7V25C7 23.3431 8.34315 22 10 22H25C26.6569 22 28 23.3431 28 25ZM17.5 18C20.5376 18 23 15.5376 23 12.5C23 9.46243 20.5376 7 17.5 7C14.4624 7 12 9.46243 12 12.5C12 15.5376 14.4624 18 17.5 18Z" fill="#E3E5E8"/>
</svg>
