<svg width="55" height="46" viewBox="0 0 55 46" fill="none" xmlns="http://www.w3.org/2000/svg">
<path fill-rule="evenodd" clip-rule="evenodd" d="M0.171612 12.7658C-0.543097 10.0985 1.03982 7.3568 3.70715 6.64209L19.8473 2.31735C18.223 3.12964 16.9313 4.56291 16.3325 6.36496L5.44953 9.28105C3.84913 9.70987 2.89938 11.3549 3.32821 12.9553L8.24577 31.3079C8.63434 32.758 10.0214 33.6739 11.4691 33.5141L11.2177 34.9401C10.7083 37.8286 12.0487 40.6154 14.388 42.0854L13.2835 42.3813C10.6161 43.0961 7.87444 41.5131 7.15973 38.8458L0.171612 12.7658ZM33.8852 3.39704C33.0484 0.918668 30.4175 -0.514943 27.8553 0.171612L22.5546 1.59194C23.09 1.56029 23.6377 1.59012 24.189 1.68733L33.8852 3.39704ZM15.081 13.0298L14.1449 18.3386C14.1274 18.3437 14.1098 18.3486 14.0921 18.3533C12.4917 18.7821 10.8467 17.8324 10.4179 16.232C9.98903 14.6316 10.9388 12.9866 12.5392 12.5578C13.4493 12.3139 14.3739 12.5159 15.081 13.0298Z" fill="#E3E5E8"/>
<path fill-rule="evenodd" clip-rule="evenodd" d="M24.4714 3.88631C21.7519 3.40679 19.1586 5.22263 18.6791 7.9421L13.9906 34.5319C13.5111 37.2514 15.3269 39.8447 18.0464 40.3242L42.6666 44.6654C45.3861 45.1449 47.9794 43.3291 48.4589 40.6096L53.1474 14.0198C53.6269 11.3003 51.8111 8.70703 49.0916 8.22751L24.4714 3.88631ZM24.9353 7.01438C23.3036 6.72667 21.7476 7.81617 21.4599 9.44786L18.1606 28.1592C17.8729 29.7909 18.9624 31.3469 20.5941 31.6346L34.2556 22.0687C34.708 21.7519 35.3316 21.8618 35.6483 22.3142L40.9905 29.9436C41.3072 30.396 41.9308 30.5059 42.3832 30.1891L47.9355 26.3013L50.0193 14.4837C50.307 12.852 49.2175 11.296 47.5858 11.0083L24.9353 7.01438ZM28.934 18.8892C30.5657 19.1769 32.1216 18.0874 32.4093 16.4557C32.6971 14.824 31.6076 13.268 29.9759 12.9803C28.3442 12.6926 26.7882 13.7821 26.5005 15.4138C26.2128 17.0455 27.3023 18.6014 28.934 18.8892Z" fill="#E3E5E8"/>
</svg>
